<svg version="1.1" xmlns="http://www.w3.org/2000/svg" xmlns:xlink="http://www.w3.org/1999/xlink" x="0px" y="0px"
	 viewBox="0 0 335.952 168.092" enable-background="new 0 0 335.952 168.092"
	 xml:space="preserve">
<path fill="#00789F" d="M283.936,168.092V154.4h9.887v1.607h-8.07v4.207h7.554v1.605h-7.554v4.666h8.396v1.605H283.936z
	 M250.69,160.443h3.889c0.828,0,1.473-0.086,1.938-0.258c0.466-0.17,0.819-0.443,1.059-0.822c0.242-0.377,0.363-0.785,0.363-1.227
	c0-0.648-0.233-1.184-0.701-1.602c-0.469-0.416-1.208-0.623-2.219-0.623h-4.328V160.443z M248.874,168.092V154.4h6.068
	c1.221,0,2.148,0.125,2.782,0.369c0.634,0.246,1.141,0.68,1.521,1.301c0.379,0.621,0.567,1.311,0.567,2.063
	c0,0.973-0.315,1.791-0.943,2.457s-1.597,1.088-2.91,1.27c0.481,0.229,0.845,0.459,1.093,0.682c0.529,0.484,1.03,1.092,1.498,1.822
	l2.368,3.729h-2.263l-1.811-2.848c-0.525-0.826-0.962-1.455-1.303-1.891c-0.345-0.438-0.65-0.74-0.922-0.914
	c-0.268-0.174-0.545-0.293-0.825-0.363c-0.204-0.043-0.539-0.064-1.007-0.064h-2.098v6.08H248.874z M218.322,162.471h4.666
	l-1.429-3.797c-0.43-1.152-0.755-2.105-0.981-2.857c-0.188,0.893-0.439,1.768-0.755,2.635L218.322,162.471z M214.383,168.092
	l5.252-13.691h1.992l5.574,13.691h-2.062l-1.584-4.148h-5.766l-1.485,4.148H214.383z M180,168.092l-3.604-13.691h1.88l2.053,8.979
	c0.224,0.939,0.421,1.873,0.59,2.799c0.36-1.461,0.57-2.301,0.631-2.525l2.588-9.252h2.184l1.963,6.932
	c0.481,1.723,0.838,3.338,1.067,4.846c0.182-0.863,0.415-1.855,0.698-2.975l2.139-8.803h1.819l-3.747,13.691h-1.763l-2.872-10.432
	c-0.242-0.873-0.389-1.408-0.442-1.605c-0.156,0.625-0.297,1.16-0.418,1.604l-2.871,10.434H180z M148.53,168.092v-12.084h-4.513
	V154.4h10.842v1.607h-4.513v12.084H148.53z M112.557,168.092V154.4h9.236v1.607h-7.419v4.264h6.425v1.605h-6.425v6.215H112.557z
	 M77.654,161.461c0,1.646,0.443,2.943,1.329,3.891c0.887,0.947,1.999,1.422,3.337,1.422c1.364,0,2.482-0.479,3.366-1.434
	c0.879-0.957,1.319-2.314,1.319-4.074c0-1.111-0.188-2.084-0.564-2.912c-0.376-0.83-0.928-1.473-1.65-1.93
	c-0.728-0.455-1.54-0.686-2.441-0.686c-1.282,0-2.385,0.441-3.309,1.32S77.654,159.404,77.654,161.461z M75.78,161.428
	c0-2.27,0.612-4.047,1.833-5.332c1.221-1.283,2.795-1.924,4.727-1.924c1.265,0,2.403,0.303,3.42,0.904
	c1.013,0.604,1.788,1.443,2.32,2.523c0.531,1.078,0.8,2.303,0.8,3.67c0,1.387-0.281,2.629-0.842,3.723
	c-0.561,1.096-1.354,1.924-2.381,2.484c-1.029,0.564-2.139,0.846-3.327,0.846c-1.291,0-2.441-0.313-3.458-0.934
	c-1.014-0.621-1.785-1.471-2.308-2.547C76.042,163.768,75.78,162.631,75.78,161.428z M41.735,163.693l1.702-0.152
	c0.079,0.689,0.268,1.252,0.564,1.695c0.296,0.439,0.755,0.797,1.377,1.072c0.621,0.27,1.322,0.408,2.1,0.408
	c0.692,0,1.301-0.104,1.83-0.311c0.528-0.207,0.921-0.49,1.179-0.852c0.259-0.359,0.389-0.752,0.389-1.172
	c0-0.428-0.124-0.801-0.373-1.121c-0.248-0.32-0.659-0.588-1.233-0.807c-0.366-0.141-1.179-0.363-2.438-0.666
	s-2.139-0.588-2.643-0.855c-0.653-0.344-1.138-0.771-1.456-1.277c-0.322-0.506-0.481-1.078-0.481-1.705
	c0-0.695,0.197-1.342,0.59-1.941c0.392-0.602,0.962-1.059,1.718-1.371c0.752-0.311,1.59-0.467,2.512-0.467
	c1.013,0,1.908,0.162,2.684,0.49c0.774,0.324,1.37,0.807,1.787,1.443c0.418,0.635,0.641,1.355,0.673,2.158l-1.74,0.133
	c-0.093-0.863-0.408-1.516-0.946-1.955c-0.539-0.443-1.336-0.664-2.388-0.664c-1.097,0-1.896,0.201-2.396,0.602
	c-0.5,0.402-0.752,0.887-0.752,1.455c0,0.49,0.179,0.895,0.532,1.213c0.351,0.316,1.259,0.645,2.731,0.977
	c1.472,0.334,2.482,0.623,3.031,0.873c0.793,0.365,1.383,0.828,1.762,1.393c0.38,0.561,0.567,1.207,0.567,1.941
	c0,0.729-0.207,1.412-0.624,2.055c-0.418,0.645-1.014,1.145-1.795,1.502c-0.78,0.357-1.657,0.535-2.636,0.535
	c-1.236,0-2.272-0.182-3.107-0.543c-0.838-0.359-1.491-0.9-1.966-1.627C42.01,165.428,41.761,164.609,41.735,163.693z"/>
<path fill-rule="evenodd" clip-rule="evenodd" fill="#202021" d="M331.178,142.303h4.774v-27.068c0-0.623-0.174-1.143-0.717-1.488
	c-0.651-0.416-1.433-0.551-2.194-0.551c-0.456,0-1.052,0.041-1.462,0.252c-0.388,0.201-0.713,0.537-0.975,0.881l-17.486,23.029
	l-17.353-23.031c-0.271-0.357-0.605-0.674-1.016-0.865c-0.465-0.219-1.085-0.266-1.594-0.266c-0.763,0-1.543,0.135-2.195,0.551
	c-0.541,0.346-0.716,0.867-0.716,1.488v27.068h4.687v-20.928l15.7,20.57c0.604,0.762,1.459,1.014,2.401,1.014
	c0.937,0,1.795-0.25,2.395-1.004l15.75-20.574V142.303z M279.236,122.486v1.615c0,0.723-0.059,1.504-0.3,2.189
	c-0.221,0.625-0.61,1.133-1.176,1.482c-0.586,0.363-1.296,0.537-1.975,0.621c-0.917,0.111-1.846,0.135-2.769,0.135h-16.966v-10.428
	h16.966c0.93,0,1.864,0.025,2.788,0.135c0.681,0.082,1.405,0.252,1.987,0.627c0.55,0.354,0.926,0.863,1.144,1.477
	C279.175,121.014,279.236,121.775,279.236,122.486z M274.345,142.303h8.752l-17.475-10.09h7.745c1.723,0,3.471-0.084,5.169-0.385
	c1.197-0.211,2.418-0.588,3.435-1.271c0.881-0.592,1.511-1.387,1.917-2.365c0.511-1.23,0.647-2.68,0.647-4.002v-2.053
	c0-1.377-0.126-2.881-0.613-4.178c-0.372-0.994-0.964-1.824-1.834-2.439c-0.987-0.699-2.196-1.078-3.377-1.285
	c-1.727-0.305-3.507-0.383-5.257-0.383h-22.656v28.451h5.254v-11.369L274.345,142.303z M239.265,123.709v8.781
	c0,0.844-0.052,1.727-0.262,2.547c-0.174,0.68-0.482,1.311-0.993,1.803c-0.519,0.498-1.186,0.775-1.884,0.916
	c-0.836,0.168-1.705,0.209-2.557,0.209h-10.746c-0.891,0-1.812-0.033-2.688-0.209c-0.699-0.141-1.365-0.418-1.884-0.918
	c-0.516-0.496-0.811-1.137-0.956-1.83c-0.172-0.82-0.211-1.682-0.211-2.518v-8.781c0-0.816,0.041-1.656,0.212-2.457
	c0.147-0.688,0.444-1.316,0.945-1.818c0.514-0.514,1.177-0.811,1.88-0.967c0.875-0.193,1.807-0.234,2.701-0.234h10.746
	c0.855,0,1.734,0.049,2.57,0.234c0.703,0.156,1.365,0.453,1.88,0.967c0.495,0.496,0.806,1.117,0.982,1.791
	C239.211,122.023,239.265,122.885,239.265,123.709z M222.518,142.303h11.314c1.764,0,3.625-0.098,5.341-0.525
	c1.162-0.291,2.313-0.773,3.205-1.592c0.838-0.766,1.359-1.746,1.664-2.832c0.413-1.471,0.521-3.078,0.521-4.602v-9.35
	c0-1.521-0.113-3.111-0.521-4.582c-0.303-1.09-0.822-2.082-1.663-2.852c-0.892-0.818-2.043-1.301-3.205-1.592
	c-1.716-0.428-3.577-0.525-5.341-0.525h-11.314c-1.752,0-3.594,0.1-5.298,0.525c-1.161,0.291-2.313,0.773-3.204,1.592
	c-0.842,0.771-1.361,1.762-1.664,2.852c-0.408,1.471-0.521,3.061-0.521,4.582v9.35c0,1.523,0.107,3.131,0.521,4.602
	c0.304,1.086,0.827,2.066,1.664,2.832c0.892,0.818,2.043,1.301,3.204,1.592C218.924,142.203,220.766,142.303,222.518,142.303z
	 M189.419,142.303h5.342v-24.07h12.495v-4.381h-30.33v4.381h12.493V142.303z M146.302,142.303h22.308
	c1.344,0,2.745-0.086,4.051-0.416c0.916-0.232,1.822-0.605,2.551-1.217c0.66-0.555,1.1-1.262,1.367-2.078
	c0.349-1.061,0.447-2.238,0.447-3.35v-2.359c0-1.08-0.104-2.211-0.446-3.24c-0.271-0.809-0.712-1.506-1.368-2.057
	c-0.725-0.609-1.629-0.975-2.543-1.193c-1.313-0.316-2.712-0.396-4.059-0.396h-13.936c-0.913,0-2.015-0.127-2.721-0.762
	c-0.694-0.625-0.877-1.592-0.877-2.486v-0.961c0-0.992,0.147-2.23,0.967-2.9c0.73-0.598,1.76-0.742,2.675-0.742h19.726v-4.293
	h-20.337c-1.22,0-2.485,0.1-3.661,0.434c-0.865,0.244-1.688,0.641-2.335,1.275c-0.648,0.633-1.057,1.449-1.312,2.311
	c-0.352,1.182-0.453,2.469-0.453,3.697v1.484c0,1.059,0.081,2.146,0.349,3.174c0.205,0.783,0.572,1.479,1.153,2.049
	c0.633,0.617,1.468,0.994,2.312,1.23c1.256,0.352,2.646,0.434,3.947,0.434h14.197c0.973,0,2.136,0.123,2.937,0.725
	c0.803,0.602,1.055,1.563,1.055,2.523v1.617c0,0.971-0.219,2.037-1.097,2.598c-0.809,0.516-1.998,0.607-2.938,0.607h-21.958V142.303
	z M141.553,142.303v-4.293H121.43c-0.837,0-1.698-0.039-2.519-0.211c-0.67-0.141-1.311-0.414-1.8-0.904
	c-0.475-0.473-0.755-1.074-0.901-1.723c-0.174-0.771-0.213-1.588-0.213-2.377v-2.768h25.381v-3.943h-25.381v-2.682
	c0-0.773,0.042-1.572,0.213-2.33c0.148-0.66,0.441-1.264,0.932-1.734s1.108-0.76,1.759-0.93c0.813-0.213,1.692-0.264,2.529-0.264
	h20.092v-4.293H121.43c-1.753,0-3.594,0.1-5.298,0.525c-1.162,0.289-2.313,0.773-3.204,1.592c-0.842,0.771-1.361,1.762-1.664,2.852
	c-0.408,1.471-0.521,3.061-0.521,4.582v9.35c0,1.523,0.107,3.131,0.521,4.602c0.305,1.086,0.827,2.066,1.665,2.832
	c0.892,0.818,2.043,1.301,3.204,1.592c1.704,0.426,3.546,0.525,5.298,0.525H141.553z M104.64,113.852h-5.256v18.639
	c0,0.834-0.066,1.713-0.313,2.512c-0.21,0.68-0.557,1.293-1.08,1.779c-0.545,0.508-1.234,0.797-1.955,0.951
	c-0.865,0.184-1.769,0.232-2.651,0.232H83.38c-0.883,0-1.787-0.049-2.651-0.232c-0.722-0.154-1.41-0.443-1.955-0.951
	c-0.518-0.48-0.866-1.082-1.078-1.752c-0.251-0.791-0.316-1.668-0.316-2.496v-18.682h-5.342v18.9c0,1.523,0.108,3.131,0.521,4.602
	c0.304,1.086,0.826,2.066,1.664,2.832c0.892,0.818,2.042,1.301,3.203,1.592c1.705,0.426,3.547,0.525,5.299,0.525h11.184
	c1.765,0,3.625-0.096,5.342-0.525c1.161-0.291,2.312-0.773,3.204-1.592c0.837-0.766,1.359-1.746,1.663-2.832
	c0.414-1.471,0.522-3.078,0.522-4.602V113.852z M67.376,142.303v-4.338H50.354c-0.917,0-1.875-0.055-2.765-0.281
	c-0.719-0.184-1.399-0.5-1.938-1.02c-0.513-0.496-0.85-1.107-1.034-1.795c-0.206-0.768-0.264-1.588-0.264-2.379v-18.639h-5.254v18.9
	c0,1.523,0.107,3.131,0.521,4.602c0.304,1.086,0.826,2.066,1.663,2.832c0.892,0.818,2.043,1.301,3.204,1.592
	c1.704,0.426,3.546,0.525,5.299,0.525H67.376z M5.299,117.926h18.625c0.996,0,2.398,0.068,3.26,0.604
	c0.854,0.531,1.124,1.473,1.124,2.428v1.879c0,0.904-0.164,1.934-0.887,2.559c-0.726,0.629-1.919,0.732-2.842,0.732H5.299V117.926z
	 M5.299,129.59h19.455c0.977,0,2.217,0.115,2.989,0.771c0.814,0.691,0.958,1.957,0.958,2.959v1.834c0,0.961-0.261,1.934-1.125,2.471
	c-0.833,0.518-2.077,0.604-3.04,0.604H5.299V129.59z M0,113.852v28.451h24.886c1.396,0,2.823-0.068,4.196-0.336
	c0.915-0.18,1.878-0.479,2.653-1.01c0.626-0.43,1.087-0.986,1.375-1.689c0.352-0.855,0.453-1.842,0.453-2.76v-2.621
	c0-0.865-0.046-1.773-0.244-2.619c-0.129-0.545-0.323-1.123-0.643-1.588c-0.245-0.354-0.549-0.652-0.928-0.861
	c-0.403-0.221-0.837-0.379-1.286-0.479l-2.607-0.578l2.57-0.723c0.8-0.227,1.454-0.66,1.976-1.307
	c0.662-0.818,0.769-2.316,0.769-3.334v-2.447c0-0.969-0.106-2.01-0.475-2.914c-0.3-0.736-0.766-1.34-1.41-1.807
	c-0.765-0.555-1.722-0.863-2.641-1.043c-1.373-0.268-2.8-0.336-4.196-0.336H0z"/>
<g>
	<defs>
		<polygon id="SVGID_1_" points="158,79.732 166.163,83.164 154.419,91.668 178.623,82.125 168.755,78.077 175.566,70.198 		"/>
	</defs>
	<clipPath id="SVGID_2_">
		<use xlink:href="#SVGID_1_"  overflow="visible"/>
	</clipPath>
	<linearGradient id="SVGID_3_" gradientUnits="userSpaceOnUse" x1="165.3818" y1="86.3115" x2="168.712" y2="70.581">
		<stop  offset="0" style="stop-color:#00789F"/>
		<stop  offset="1" style="stop-color:#5EC9E2"/>
	</linearGradient>
	<rect x="154.419" y="70.198" clip-path="url(#SVGID_2_)" fill="url(#SVGID_3_)" width="24.204" height="21.47"/>
</g>
<g>
	<defs>
		<path id="SVGID_4_" d="M121.994,79.339c15.288-0.037,18.841,0.096,30.121,0.096c4.64-1.843,17.408-8.408,22.425-11.131
			c0.922-0.5,2.046-0.275,2.704,0.543c0.356,0.442,0.514,0.98,0.475,1.507c12.993-6.384,25.567-15.427,34.192-28.202
			c0,0-4.66,21.553-38.044,35.694l3.871,1.588h24.033c26.57,1.168,38.823-26.205,26.273-44.713l-18.126,0.288
			C180.805,76.672,120.683,79.342,121.994,79.339"/>
	</defs>
	<clipPath id="SVGID_5_">
		<use xlink:href="#SVGID_4_"  overflow="visible"/>
	</clipPath>
	<linearGradient id="SVGID_6_" gradientUnits="userSpaceOnUse" x1="179.1768" y1="69.6191" x2="183.5168" y2="34.1289">
		<stop  offset="0" style="stop-color:#00789F"/>
		<stop  offset="1" style="stop-color:#5EC9E2"/>
	</linearGradient>
	<rect x="120.683" y="34.722" clip-path="url(#SVGID_5_)" fill="url(#SVGID_6_)" width="119.912" height="45.881"/>
</g>
<g>
	<defs>
		<path id="SVGID_7_" d="M114.219,75.461c18.053-2.695,38.423-11.108,55.317-22.527c7.891-5.156,14.89-11.599,20.489-19.526
			c1.043-1.478,2.039-3.002,2.982-4.584c-1.288-2.261-0.799-8.955-0.149-11.14c-15.555-13.91-46.802-3.675-54.185,13.445
			C102.804,27.497,96.832,63.073,114.219,75.461"/>
	</defs>
	<clipPath id="SVGID_8_">
		<use xlink:href="#SVGID_7_"  overflow="visible"/>
	</clipPath>
	<linearGradient id="SVGID_9_" gradientUnits="userSpaceOnUse" x1="140.5996" y1="59.1724" x2="151.4996" y2="9.8424">
		<stop  offset="0" style="stop-color:#00789F"/>
		<stop  offset="1" style="stop-color:#5EC9E2"/>
	</linearGradient>
	<rect x="96.832" y="3.773" clip-path="url(#SVGID_8_)" fill="url(#SVGID_9_)" width="96.176" height="71.688"/>
</g>
<g>
	<defs>
		<path id="SVGID_10_" d="M199.571,17.77h7.193c0.932,0,1.611,0.762,1.512,1.692l-0.435,4.09c-0.099,0.931-0.941,1.693-1.873,1.693
			h-7.193c-0.931,0-1.61-0.762-1.512-1.693l0.436-4.09C197.798,18.532,198.64,17.77,199.571,17.77 M215.97,18.789h10.799
			c1.396,0,2.419,1.143,2.27,2.54l-0.653,6.141c-0.149,1.398-1.415,2.542-2.812,2.542h-10.8c-1.397,0-2.419-1.144-2.27-2.542
			l0.653-6.141C213.307,19.931,214.571,18.789,215.97,18.789z M231.653,2.397h12.217c1.58,0,2.734,1.293,2.566,2.873l-0.739,6.947
			c-0.169,1.58-1.599,2.873-3.179,2.873h-12.217c-1.58,0-2.735-1.293-2.566-2.873l0.739-6.947
			C228.644,3.69,230.073,2.397,231.653,2.397z M207.302,0h14.115c1.827,0,3.161,1.494,2.967,3.321l-0.854,8.025
			c-0.194,1.828-1.847,3.321-3.673,3.321h-14.115c-1.828,0-3.162-1.493-2.968-3.321l0.854-8.025C203.822,1.494,205.475,0,207.302,0z
			"/>
	</defs>
	<clipPath id="SVGID_11_">
		<use xlink:href="#SVGID_10_"  overflow="visible"/>
	</clipPath>
	<linearGradient id="SVGID_12_" gradientUnits="userSpaceOnUse" x1="218.0986" y1="30.2729" x2="225.6685" y2="-0.2467">
		<stop  offset="0" style="stop-color:#00789F"/>
		<stop  offset="1" style="stop-color:#5EC9E2"/>
	</linearGradient>
	<rect x="197.165" clip-path="url(#SVGID_11_)" fill="url(#SVGID_12_)" width="49.439" height="30.011"/>
</g>
</svg>
